<svg width="24" height="24" viewBox="0 0 24 24" version="1.1" xmlns="http://www.w3.org/2000/svg"><path d="M19,0l-14,0c-2.761,0 -5,2.239 -5,5l0,14c0,2.761 2.239,5 5,5l14,0c2.762,0 5,-2.239 5,-5l0,-14c0,-2.761 -2.238,-5 -5,-5Zm-11,19l-3,0l0,-11l3,0l0,11Zm-1.5,-12.268c-0.966,0 -1.75,-0.79 -1.75,-1.764c0,-0.974 0.784,-1.764 1.75,-1.764c0.966,0 1.75,0.79 1.75,1.764c0,0.974 -0.783,1.764 -1.75,1.764Zm13.5,12.268l-3,0l0,-5.604c0,-3.368 -4,-3.113 -4,0l0,5.604l-3,0l0,-11l3,0l0,1.765c1.396,-2.586 7,-2.777 7,2.476l0,6.759Z" style="fill:#fff9f9;fill-rule:nonzero;"/></svg>